<svg width="200" height="75" viewBox="0 0 200 75" fill="none" xmlns="http://www.w3.org/2000/svg">
<g style="mix-blend-mode:lighten" opacity="0.9">
<rect x="2.5" y="2.5" width="69.573" height="69.573" fill="url(#paint0_linear_8_23)"/>
<rect x="2.5" y="2.5" width="69.573" height="69.573" stroke="white" stroke-width="5"/>
</g>
<path d="M38.9396 33.5862H33.3402C33.2379 32.8617 33.0291 32.2183 32.7137 31.6558C32.3984 31.0848 31.9936 30.599 31.4992 30.1984C31.0049 29.7978 30.4339 29.491 29.7862 29.2779C29.147 29.0649 28.4524 28.9583 27.7024 28.9583C26.3473 28.9583 25.1669 29.295 24.1612 29.9683C23.1555 30.6331 22.3757 31.6046 21.8217 32.8831C21.2677 34.1529 20.9907 35.6956 20.9907 37.5109C20.9907 39.3774 21.2677 40.9456 21.8217 42.2154C22.3842 43.4853 23.1683 44.4441 24.174 45.0919C25.1796 45.7396 26.343 46.0635 27.664 46.0635C28.4055 46.0635 29.0916 45.9654 29.7223 45.7694C30.3615 45.5734 30.9282 45.2879 31.4225 44.9129C31.9169 44.5294 32.326 44.0649 32.6498 43.5194C32.9822 42.974 33.2123 42.3518 33.3402 41.6529L38.9396 41.6785C38.7947 42.8802 38.4325 44.0393 37.8529 45.1558C37.2819 46.2637 36.5106 47.2566 35.539 48.1345C34.576 49.0038 33.4254 49.6941 32.0873 50.2055C30.7578 50.7083 29.2535 50.9598 27.5745 50.9598C25.2393 50.9598 23.1512 50.4314 21.3103 49.3745C19.4779 48.3177 18.0291 46.7879 16.9637 44.785C15.9069 42.7822 15.3785 40.3575 15.3785 37.5109C15.3785 34.6558 15.9154 32.2268 16.9893 30.224C18.0632 28.2211 19.5206 26.6956 21.3615 25.6473C23.2024 24.5904 25.2734 24.062 27.5745 24.062C29.0916 24.062 30.4978 24.2751 31.7933 24.7012C33.0973 25.1274 34.2521 25.7495 35.2578 26.5677C36.2635 27.3774 37.0816 28.3703 37.7123 29.5464C38.3515 30.7225 38.7606 32.0691 38.9396 33.5862ZM48.4062 50.9725C47.1534 50.9725 46.0369 50.7552 45.0568 50.3206C44.0767 49.8774 43.3011 49.2254 42.7301 48.3646C42.1676 47.4953 41.8863 46.4129 41.8863 45.1174C41.8863 44.0265 42.0866 43.1103 42.4872 42.3689C42.8877 41.6274 43.4332 41.0308 44.1235 40.5791C44.8139 40.1274 45.598 39.7865 46.4758 39.5564C47.3622 39.3262 48.2911 39.1643 49.2627 39.0706C50.4048 38.9512 51.3252 38.8404 52.0241 38.7382C52.723 38.6274 53.2301 38.4654 53.5454 38.2524C53.8607 38.0393 54.0184 37.724 54.0184 37.3064V37.2296C54.0184 36.42 53.7627 35.7936 53.2514 35.3504C52.7485 34.9072 52.0326 34.6856 51.1036 34.6856C50.1235 34.6856 49.3437 34.9029 48.7642 35.3376C48.1846 35.7637 47.8011 36.3007 47.6136 36.9484L42.5767 36.5393C42.8323 35.3461 43.3352 34.3149 44.0852 33.4456C44.8352 32.5677 45.8025 31.8944 46.9872 31.4257C48.1804 30.9484 49.561 30.7098 51.1292 30.7098C52.2201 30.7098 53.2642 30.8376 54.2613 31.0933C55.267 31.349 56.1576 31.7453 56.9332 32.2822C57.7173 32.8191 58.3352 33.5095 58.7869 34.3532C59.2386 35.1885 59.4644 36.1899 59.4644 37.3575V50.6018H54.2997V47.8788H54.1463C53.8309 48.4924 53.409 49.0336 52.8806 49.5024C52.3522 49.9626 51.7173 50.3248 50.9758 50.589C50.2343 50.8447 49.3778 50.9725 48.4062 50.9725ZM49.9659 47.214C50.767 47.214 51.4744 47.0564 52.088 46.741C52.7017 46.4171 53.1832 45.9825 53.5326 45.437C53.8821 44.8916 54.0568 44.2737 54.0568 43.5833V41.4995C53.8863 41.6103 53.6519 41.7126 53.3536 41.8064C53.0639 41.8916 52.7357 41.9725 52.3693 42.0492C52.0028 42.1174 51.6363 42.1814 51.2698 42.241C50.9034 42.2921 50.571 42.339 50.2727 42.3816C49.6335 42.4754 49.0752 42.6245 48.598 42.8291C48.1207 43.0336 47.75 43.3106 47.4857 43.66C47.2215 44.001 47.0894 44.4271 47.0894 44.9385C47.0894 45.6799 47.3579 46.2467 47.8948 46.6387C48.4403 47.0223 49.1306 47.214 49.9659 47.214Z" fill="white"/>
<path d="M54.5895 15V13.892L57.1783 11.495C57.3984 11.282 57.5831 11.0902 57.7322 10.9197C57.8838 10.7493 57.9986 10.5824 58.0767 10.419C58.1548 10.2533 58.1939 10.0746 58.1939 9.88281C58.1939 9.66974 58.1454 9.48627 58.0483 9.33239C57.9512 9.17614 57.8187 9.05658 57.6506 8.97372C57.4825 8.88849 57.2919 8.84588 57.0788 8.84588C56.8563 8.84588 56.6622 8.89086 56.4964 8.98082C56.3307 9.07079 56.2029 9.19981 56.1129 9.3679C56.023 9.53598 55.978 9.73603 55.978 9.96804H54.5185C54.5185 9.49219 54.6262 9.07907 54.8416 8.72869C55.0571 8.37831 55.3589 8.10724 55.7472 7.91548C56.1354 7.72372 56.5829 7.62784 57.0895 7.62784C57.6103 7.62784 58.0637 7.72017 58.4496 7.90483C58.8378 8.08712 59.1397 8.34044 59.3551 8.66477C59.5705 8.98911 59.6783 9.3608 59.6783 9.77983C59.6783 10.0545 59.6238 10.3255 59.5149 10.593C59.4084 10.8606 59.2178 11.1577 58.9432 11.4844C58.6686 11.8087 58.2815 12.1982 57.782 12.6527L56.7202 13.6932V13.7429H59.7741V15H54.5895ZM63.7399 15.1598C63.1291 15.1574 62.6035 15.0071 62.1632 14.7088C61.7252 14.4105 61.3878 13.9785 61.1511 13.4126C60.9167 12.8468 60.8007 12.1662 60.8031 11.3707C60.8031 10.5777 60.9203 9.90175 61.1547 9.34304C61.3914 8.78433 61.7288 8.35937 62.1667 8.06818C62.6071 7.77462 63.1315 7.62784 63.7399 7.62784C64.3483 7.62784 64.8715 7.77462 65.3095 8.06818C65.7498 8.36174 66.0884 8.78788 66.3251 9.34659C66.5618 9.90294 66.679 10.5777 66.6767 11.3707C66.6767 12.1686 66.5583 12.8504 66.3216 13.4162C66.0872 13.982 65.751 14.4141 65.313 14.7124C64.8751 15.0107 64.3507 15.1598 63.7399 15.1598ZM63.7399 13.8849C64.1565 13.8849 64.4892 13.6754 64.7377 13.2564C64.9863 12.8374 65.1094 12.2088 65.1071 11.3707C65.1071 10.8191 65.0502 10.3598 64.9366 9.9929C64.8253 9.62595 64.6667 9.35014 64.4608 9.16548C64.2572 8.98082 64.0169 8.88849 63.7399 8.88849C63.3256 8.88849 62.9941 9.09564 62.7456 9.50994C62.497 9.92424 62.3715 10.5445 62.3691 11.3707C62.3691 11.9295 62.4248 12.3958 62.536 12.7699C62.6497 13.1416 62.8095 13.4209 63.0154 13.608C63.2214 13.7926 63.4629 13.8849 63.7399 13.8849Z" fill="white"/>
<path d="M78.184 47.9598H80.344V35.1078L78.184 34.6398V32.5878L85.708 31.0398V34.6038H85.852C86.188 33.5958 86.728 32.7558 87.472 32.0838C88.216 31.3878 89.188 31.0398 90.388 31.0398C91.564 31.0398 92.488 31.3638 93.16 32.0118C93.832 32.6358 94.168 33.4998 94.168 34.6038C94.168 35.5638 93.916 36.3198 93.412 36.8718C92.908 37.4238 92.2 37.6998 91.288 37.6998C90.424 37.6998 89.764 37.4718 89.308 37.0158C88.852 36.5358 88.624 35.9718 88.624 35.3238C88.624 35.0358 88.684 34.7718 88.804 34.5318C88.924 34.2918 89.068 34.1358 89.236 34.0638L89.2 33.8838C89.128 33.8598 89.02 33.8478 88.876 33.8478C88.492 33.8478 88.12 33.9558 87.76 34.1718C87.4 34.3878 87.076 34.6638 86.788 34.9998C86.5 35.3358 86.26 35.7078 86.068 36.1158C85.9 36.5238 85.816 36.9198 85.816 37.3038V47.9598H88.696V50.3358H78.184V47.9598ZM97.5812 33.8478H95.8892V31.4718H105.141V33.8478H103.125L105.825 44.8638H106.041L109.785 31.4718H114.105L118.317 44.8998H118.533L121.125 33.8478H118.785V31.4718H125.625V33.8478H123.933L119.073 50.3358H115.077L110.901 37.1958H110.685L106.437 50.3358H102.441L97.5812 33.8478ZM132.95 50.7678C130.91 50.7678 129.422 50.2998 128.486 49.3638C127.574 48.4038 127.118 47.0718 127.118 45.3678C127.118 41.6478 129.866 39.7878 135.362 39.7878H137.882V37.7358C137.882 36.2718 137.606 35.1678 137.054 34.4238C136.502 33.6798 135.542 33.3078 134.174 33.3078C133.67 33.3078 133.238 33.3438 132.878 33.4158C132.518 33.4878 132.206 33.5838 131.942 33.7038V33.8838C132.182 34.0038 132.41 34.2198 132.626 34.5318C132.866 34.8438 132.986 35.2638 132.986 35.7918C132.986 36.5118 132.758 37.1238 132.302 37.6278C131.846 38.1078 131.162 38.3478 130.25 38.3478C129.53 38.3478 128.93 38.0958 128.45 37.5918C127.97 37.0878 127.73 36.4518 127.73 35.6838C127.73 35.1078 127.898 34.5438 128.234 33.9918C128.57 33.4158 129.074 32.9118 129.746 32.4798C130.418 32.0478 131.246 31.6998 132.23 31.4358C133.238 31.1718 134.39 31.0398 135.686 31.0398C138.302 31.0398 140.234 31.6038 141.482 32.7318C142.73 33.8358 143.354 35.4078 143.354 37.4478V47.9598H145.514V50.0118C145.106 50.2518 144.578 50.4318 143.93 50.5518C143.282 50.6958 142.61 50.7678 141.914 50.7678C140.594 50.7678 139.658 50.4678 139.106 49.8678C138.578 49.2438 138.314 48.4758 138.314 47.5638V47.4918H138.098C137.93 47.8998 137.714 48.2958 137.45 48.6798C137.21 49.0638 136.886 49.4118 136.478 49.7238C136.094 50.0358 135.614 50.2878 135.038 50.4798C134.462 50.6718 133.766 50.7678 132.95 50.7678ZM135.002 47.5278C135.89 47.5278 136.586 47.3238 137.09 46.9158C137.618 46.5078 137.882 45.7998 137.882 44.7918V41.9478H135.938C134.786 41.9478 133.922 42.1878 133.346 42.6678C132.794 43.1478 132.518 43.8318 132.518 44.7198V45.2958C132.518 46.0638 132.746 46.6278 133.202 46.9878C133.658 47.3478 134.258 47.5278 135.002 47.5278ZM156 50.7678C154.68 50.7678 153.672 50.5278 152.976 50.0478C152.28 49.5438 151.836 48.9918 151.644 48.3918H151.5V50.3358H147.972V44.7198H151.5V45.2958C151.5 46.2318 151.788 46.9398 152.364 47.4198C152.94 47.8998 153.876 48.1398 155.172 48.1398C156.324 48.1398 157.164 47.9598 157.692 47.5998C158.22 47.2398 158.484 46.6878 158.484 45.9438C158.484 45.3438 158.292 44.8878 157.908 44.5758C157.524 44.2398 156.888 43.9398 156 43.6758L154.308 43.2078C152.22 42.6318 150.672 41.8638 149.664 40.9038C148.68 39.9198 148.188 38.5998 148.188 36.9438C148.188 35.0478 148.812 33.5958 150.06 32.5878C151.308 31.5558 152.952 31.0398 154.992 31.0398C156.264 31.0398 157.236 31.2798 157.908 31.7598C158.58 32.2398 159.012 32.7798 159.204 33.3798H159.348V31.4718H162.876V37.0878H159.348V36.4398C159.348 35.5278 159.06 34.8438 158.484 34.3878C157.932 33.9078 157.02 33.6678 155.748 33.6678C153.924 33.6678 153.012 34.3278 153.012 35.6478C153.012 36.2718 153.192 36.7758 153.552 37.1598C153.936 37.5438 154.62 37.8558 155.604 38.0958L157.152 38.4918C158.16 38.7558 159.048 39.0558 159.816 39.3918C160.584 39.7278 161.22 40.1358 161.724 40.6158C162.252 41.0718 162.648 41.6358 162.912 42.3078C163.176 42.9558 163.308 43.7358 163.308 44.6478C163.308 46.6398 162.636 48.1638 161.292 49.2198C159.948 50.2518 158.184 50.7678 156 50.7678ZM165.75 47.9598H167.91V27.0438L165.75 26.5758V24.5238L173.382 22.9758V34.4598H173.634C173.97 33.4998 174.558 32.6958 175.398 32.0478C176.262 31.3758 177.402 31.0398 178.818 31.0398C181.122 31.0398 182.742 31.6278 183.678 32.8038C184.638 33.9558 185.118 35.6958 185.118 38.0238V47.9598H187.278V50.3358H177.666V47.9598H179.646V38.2038C179.646 36.9318 179.418 36.0318 178.962 35.5038C178.53 34.9518 177.786 34.6758 176.73 34.6758C176.322 34.6758 175.914 34.7358 175.506 34.8558C175.122 34.9518 174.762 35.1198 174.426 35.3598C174.114 35.5758 173.862 35.8638 173.67 36.2238C173.478 36.5598 173.382 36.9798 173.382 37.4838V47.9598H175.362V50.3358H165.75V47.9598Z" fill="white"/>
<defs>
<linearGradient id="paint0_linear_8_23" x1="0" y1="0" x2="74.573" y2="74.573" gradientUnits="userSpaceOnUse">
<stop stop-color="#369457"/>
<stop offset="1" stop-color="#093009"/>
</linearGradient>
</defs>
</svg>
